<svg xmlns="http://www.w3.org/2000/svg" xmlns:xlink="http://www.w3.org/1999/xlink" width="500" zoomAndPan="magnify" viewBox="0 0 375 374.999991" height="500" preserveAspectRatio="xMidYMid meet" version="1.0"><defs><g/></defs><g fill="#616320" fill-opacity="1"><g transform="translate(70.078124, 179.493358)"><g><path d="M 2.3125 -22.5 L 19.15625 -4.859375 L 19.15625 -21.578125 L 21.546875 -21.578125 L 21.546875 0.96875 L 4.71875 -16.625 L 4.71875 0 L 2.3125 0 Z M 2.3125 -22.5 "/></g></g></g><g fill="#616320" fill-opacity="1"><g transform="translate(93.944868, 179.493358)"><g><path d="M 10.140625 -22.609375 L 19.84375 0 L 17.171875 0 L 14.625 -6.125 L 5.40625 -6.125 L 2.8125 0 L 0.171875 0 Z M 6.390625 -8.359375 L 13.6875 -8.359375 L 10.078125 -17 Z M 3.890625 -21.578125 Z M 3.890625 -21.578125 "/></g></g></g><g fill="#616320" fill-opacity="1"><g transform="translate(113.948292, 179.493358)"><g><path d="M 4.578125 -21.578125 L 4.578125 -12.34375 L 13.765625 -21.578125 L 17 -21.578125 L 6.875 -11.53125 L 17.34375 0 L 14.03125 0 L 5.1875 -9.90625 L 4.578125 -9.296875 L 4.578125 0 L 2.171875 0 L 2.171875 -21.578125 Z M 4.578125 -21.578125 "/></g></g></g><g fill="#616320" fill-opacity="1"><g transform="translate(131.433399, 179.493358)"><g><path d="M 4.640625 -21.578125 L 4.640625 0 L 2.234375 0 L 2.234375 -21.578125 Z M 4.640625 -21.578125 "/></g></g></g><g fill="#616320" fill-opacity="1"><g transform="translate(138.272914, 179.493358)"><g><path d="M 13.171875 -21.578125 L 13.171875 -19.34375 L 7.90625 -19.34375 L 7.90625 0 L 5.5 0 L 5.5 -19.34375 L 0.28125 -19.34375 L 0.28125 -21.578125 Z M 13.171875 -21.578125 "/></g></g></g><g fill="#616320" fill-opacity="1"><g transform="translate(151.722994, 179.493358)"><g/></g></g><g fill="#00687a" fill-opacity="1"><g transform="translate(160.546868, 179.493358)"><g><path d="M 10.015625 -12.34375 L 14.5625 -6.53125 L 17 -9.359375 L 18.75 -7.921875 L 16 -4.71875 L 19.671875 0 L 16.625 0 L 14.3125 -3.03125 C 13 -1.832031 11.78125 -0.960938 10.65625 -0.421875 C 9.539062 0.109375 8.457031 0.375 7.40625 0.375 C 6.28125 0.375 5.238281 0.117188 4.28125 -0.390625 C 3.332031 -0.910156 2.566406 -1.628906 1.984375 -2.546875 C 1.398438 -3.460938 1.109375 -4.492188 1.109375 -5.640625 C 1.109375 -6.578125 1.304688 -7.425781 1.703125 -8.1875 C 2.097656 -8.945312 2.625 -9.644531 3.28125 -10.28125 C 3.9375 -10.925781 5.066406 -11.765625 6.671875 -12.796875 C 6.035156 -13.640625 5.515625 -14.414062 5.109375 -15.125 C 4.710938 -15.84375 4.515625 -16.59375 4.515625 -17.375 C 4.515625 -18.6875 4.960938 -19.773438 5.859375 -20.640625 C 6.765625 -21.515625 7.894531 -21.953125 9.25 -21.953125 C 10.519531 -21.953125 11.597656 -21.539062 12.484375 -20.71875 C 13.378906 -19.90625 13.828125 -18.90625 13.828125 -17.71875 C 13.828125 -16.6875 13.519531 -15.765625 12.90625 -14.953125 C 12.300781 -14.140625 11.335938 -13.269531 10.015625 -12.34375 Z M 8.640625 -14.078125 L 9.640625 -14.828125 C 10.421875 -15.398438 10.929688 -15.90625 11.171875 -16.34375 C 11.410156 -16.78125 11.53125 -17.238281 11.53125 -17.71875 C 11.53125 -18.34375 11.300781 -18.863281 10.84375 -19.28125 C 10.382812 -19.707031 9.820312 -19.921875 9.15625 -19.921875 C 8.53125 -19.921875 7.984375 -19.691406 7.515625 -19.234375 C 7.046875 -18.773438 6.8125 -18.210938 6.8125 -17.546875 C 6.8125 -16.921875 7.066406 -16.253906 7.578125 -15.546875 Z M 12.875 -4.84375 L 8.078125 -11.015625 C 7.347656 -10.546875 6.644531 -10.066406 5.96875 -9.578125 C 5.289062 -9.085938 4.703125 -8.519531 4.203125 -7.875 C 3.710938 -7.226562 3.46875 -6.503906 3.46875 -5.703125 C 3.46875 -4.679688 3.851562 -3.773438 4.625 -2.984375 C 5.394531 -2.191406 6.273438 -1.796875 7.265625 -1.796875 C 8.085938 -1.796875 8.925781 -2.03125 9.78125 -2.5 C 10.644531 -2.96875 11.675781 -3.75 12.875 -4.84375 Z M 12.875 -4.84375 "/></g></g></g><g fill="#00687a" fill-opacity="1"><g transform="translate(180.435829, 179.493358)"><g/></g></g><g fill="#a8781d" fill-opacity="1"><g transform="translate(189.257804, 179.493358)"><g><path d="M 5.953125 -21.578125 C 7.835938 -21.578125 9.265625 -21.351562 10.234375 -20.90625 C 11.210938 -20.457031 12.003906 -19.753906 12.609375 -18.796875 C 13.210938 -17.847656 13.515625 -16.773438 13.515625 -15.578125 C 13.515625 -13.816406 12.9375 -12.351562 11.78125 -11.1875 C 10.625 -10.03125 8.890625 -9.453125 6.578125 -9.453125 L 4.578125 -9.453125 L 4.578125 0 L 2.171875 0 L 2.171875 -21.578125 Z M 4.578125 -11.671875 L 5.875 -11.671875 C 7.757812 -11.671875 9.101562 -11.992188 9.90625 -12.640625 C 10.707031 -13.296875 11.109375 -14.273438 11.109375 -15.578125 C 11.109375 -16.890625 10.710938 -17.84375 9.921875 -18.4375 C 9.128906 -19.039062 7.726562 -19.34375 5.71875 -19.34375 L 4.578125 -19.34375 Z M 4.578125 -11.671875 "/></g></g></g><g fill="#a8781d" fill-opacity="1"><g transform="translate(203.652262, 179.493358)"><g><path d="M 5.46875 -21.578125 C 10.625 -21.578125 13.203125 -19.59375 13.203125 -15.625 C 13.203125 -13.96875 12.71875 -12.597656 11.75 -11.515625 C 10.789062 -10.441406 9.46875 -9.828125 7.78125 -9.671875 L 14.65625 0 L 11.703125 0 L 5.1875 -9.46875 L 4.578125 -9.46875 L 4.578125 0 L 2.171875 0 L 2.171875 -21.578125 Z M 4.578125 -11.59375 L 5.640625 -11.59375 C 7.335938 -11.59375 8.617188 -11.90625 9.484375 -12.53125 C 10.359375 -13.164062 10.796875 -14.140625 10.796875 -15.453125 C 10.796875 -16.890625 10.367188 -17.894531 9.515625 -18.46875 C 8.671875 -19.050781 7.445312 -19.34375 5.84375 -19.34375 L 4.578125 -19.34375 Z M 4.578125 -11.59375 "/></g></g></g><g fill="#a8781d" fill-opacity="1"><g transform="translate(219.162782, 179.493358)"><g><path d="M 4.640625 -21.578125 L 4.640625 0 L 2.234375 0 L 2.234375 -21.578125 Z M 4.640625 -21.578125 "/></g></g></g><g fill="#a8781d" fill-opacity="1"><g transform="translate(226.002297, 179.493358)"><g><path d="M 5.46875 -21.578125 C 10.625 -21.578125 13.203125 -19.59375 13.203125 -15.625 C 13.203125 -13.96875 12.71875 -12.597656 11.75 -11.515625 C 10.789062 -10.441406 9.46875 -9.828125 7.78125 -9.671875 L 14.65625 0 L 11.703125 0 L 5.1875 -9.46875 L 4.578125 -9.46875 L 4.578125 0 L 2.171875 0 L 2.171875 -21.578125 Z M 4.578125 -11.59375 L 5.640625 -11.59375 C 7.335938 -11.59375 8.617188 -11.90625 9.484375 -12.53125 C 10.359375 -13.164062 10.796875 -14.140625 10.796875 -15.453125 C 10.796875 -16.890625 10.367188 -17.894531 9.515625 -18.46875 C 8.671875 -19.050781 7.445312 -19.34375 5.84375 -19.34375 L 4.578125 -19.34375 Z M 4.578125 -11.59375 "/></g></g></g><g fill="#a8781d" fill-opacity="1"><g transform="translate(241.512818, 179.493358)"><g><path d="M 1.09375 -10.765625 C 1.09375 -12.742188 1.59375 -14.59375 2.59375 -16.3125 C 3.59375 -18.03125 4.957031 -19.398438 6.6875 -20.421875 C 8.425781 -21.441406 10.3125 -21.953125 12.34375 -21.953125 C 14.34375 -21.953125 16.207031 -21.457031 17.9375 -20.46875 C 19.664062 -19.476562 21.039062 -18.113281 22.0625 -16.375 C 23.082031 -14.632812 23.59375 -12.765625 23.59375 -10.765625 C 23.59375 -8.773438 23.085938 -6.921875 22.078125 -5.203125 C 21.078125 -3.492188 19.710938 -2.132812 17.984375 -1.125 C 16.265625 -0.125 14.382812 0.375 12.34375 0.375 C 10.332031 0.375 8.457031 -0.117188 6.71875 -1.109375 C 4.988281 -2.109375 3.617188 -3.46875 2.609375 -5.1875 C 1.597656 -6.914062 1.09375 -8.773438 1.09375 -10.765625 Z M 12.3125 -19.71875 C 10.707031 -19.71875 9.226562 -19.304688 7.875 -18.484375 C 6.519531 -17.671875 5.453125 -16.582031 4.671875 -15.21875 C 3.890625 -13.851562 3.5 -12.378906 3.5 -10.796875 C 3.5 -9.210938 3.894531 -7.734375 4.6875 -6.359375 C 5.488281 -4.984375 6.570312 -3.890625 7.9375 -3.078125 C 9.300781 -2.265625 10.769531 -1.859375 12.34375 -1.859375 C 13.925781 -1.859375 15.40625 -2.269531 16.78125 -3.09375 C 18.164062 -3.914062 19.242188 -5.007812 20.015625 -6.375 C 20.796875 -7.75 21.1875 -9.222656 21.1875 -10.796875 C 21.1875 -12.398438 20.789062 -13.890625 20 -15.265625 C 19.207031 -16.648438 18.128906 -17.738281 16.765625 -18.53125 C 15.398438 -19.320312 13.914062 -19.71875 12.3125 -19.71875 Z M 12.3125 -19.71875 "/></g></g></g><g fill="#a8781d" fill-opacity="1"><g transform="translate(266.180842, 179.493358)"><g><path d="M 6.734375 -21.578125 C 8.710938 -21.578125 10.414062 -21.273438 11.84375 -20.671875 C 13.28125 -20.078125 14.472656 -19.269531 15.421875 -18.25 C 16.378906 -17.226562 17.085938 -16.078125 17.546875 -14.796875 C 18.003906 -13.515625 18.234375 -12.148438 18.234375 -10.703125 C 18.234375 -8.847656 17.804688 -7.125 16.953125 -5.53125 C 16.109375 -3.945312 14.851562 -2.628906 13.1875 -1.578125 C 11.53125 -0.523438 9.367188 0 6.703125 0 L 2.171875 0 L 2.171875 -21.578125 Z M 6.875 -2.234375 C 8.1875 -2.234375 9.375 -2.425781 10.4375 -2.8125 C 11.507812 -3.207031 12.457031 -3.796875 13.28125 -4.578125 C 14.101562 -5.359375 14.734375 -6.289062 15.171875 -7.375 C 15.609375 -8.46875 15.828125 -9.609375 15.828125 -10.796875 C 15.828125 -12.359375 15.476562 -13.773438 14.78125 -15.046875 C 14.082031 -16.316406 13.085938 -17.347656 11.796875 -18.140625 C 10.515625 -18.941406 8.785156 -19.34375 6.609375 -19.34375 L 4.578125 -19.34375 L 4.578125 -2.234375 Z M 6.875 -2.234375 "/></g></g></g><g fill="#a8781d" fill-opacity="1"><g transform="translate(284.896245, 179.493358)"><g><path d="M 10.140625 -22.609375 L 19.84375 0 L 17.171875 0 L 14.625 -6.125 L 5.40625 -6.125 L 2.8125 0 L 0.171875 0 Z M 6.390625 -8.359375 L 13.6875 -8.359375 L 10.078125 -17 Z M 3.890625 -21.578125 Z M 3.890625 -21.578125 "/></g></g></g></svg>