<svg preserveAspectRatio="xMidYMid meet" xmlns="http://www.w3.org/2000/svg" zoomAndPan="magnify" viewBox="72.37 156.87 232.38 23.62"><path d="m2.3125-22.5 16.84375 17.640625v-16.71875h2.390625v22.546875l-16.828125-17.59375v16.625h-2.40625zm0 0" fill="#616320" transform="translate(70.078124 179.493358)"/><path d="m10.140625-22.609375 9.703125 22.609375h-2.671875l-2.546875-6.125h-9.21875l-2.59375 6.125h-2.640625zm-3.75 14.25h7.296875l-3.609375-8.640625zm-2.5-13.21875" fill="#616320" transform="translate(93.944868 179.493358)"/><path d="m4.578125-21.578125v9.234375l9.1875-9.234375h3.234375l-10.125 10.046875 10.46875 11.53125h-3.3125l-8.84375-9.90625-.609375.609375v9.296875h-2.40625v-21.578125zm0 0" fill="#616320" transform="translate(113.948292 179.493358)"/><path d="m4.640625-21.578125v21.578125h-2.40625v-21.578125zm0 0" fill="#616320" transform="translate(131.433399 179.493358)"/><path d="m13.171875-21.578125v2.234375h-5.265625v19.34375h-2.40625v-19.34375h-5.21875v-2.234375zm0 0" fill="#616320" transform="translate(138.272914 179.493358)"/><path d="m10.015625-12.34375 4.546875 5.8125 2.4375-2.828125 1.75 1.4375-2.75 3.203125 3.671875 4.71875h-3.046875l-2.3125-3.03125c-1.3125 1.199219-2.53125 2.070312-3.65625 2.609375-1.117188.53125-2.199219.796875-3.25.796875-1.125 0-2.167969-.257812-3.125-.765625-.949219-.519531-1.714844-1.238281-2.296875-2.15625-.585937-.914063-.875-1.945313-.875-3.09375 0-.9375.195313-1.785156.59375-2.546875.394531-.757812.921875-1.457031 1.578125-2.09375.65625-.644531 1.785156-1.484375 3.390625-2.515625-.636719-.84375-1.15625-1.617187-1.5625-2.328125-.398437-.71875-.59375-1.46875-.59375-2.25 0-1.3125.445313-2.398438 1.34375-3.265625.90625-.875 2.035156-1.3125 3.390625-1.3125 1.269531 0 2.347656.414063 3.234375 1.234375.894531.8125 1.34375 1.8125 1.34375 3 0 1.03125-.308594 1.953125-.921875 2.765625-.605469.8125-1.570312 1.683594-2.890625 2.609375zm-1.375-1.734375 1-.75c.78125-.570313 1.289063-1.078125 1.53125-1.515625.238281-.4375.359375-.894531.359375-1.375 0-.625-.230469-1.144531-.6875-1.5625-.460938-.425781-1.023438-.640625-1.6875-.640625-.625 0-1.171875.230469-1.640625.6875-.46875.460937-.703125 1.023437-.703125 1.6875 0 .625.253906 1.292969.765625 2zm4.234375 9.234375-4.796875-6.171875c-.730469.46875-1.433594.949219-2.109375 1.4375-.679688.492187-1.265625 1.058594-1.765625 1.703125-.492187.648438-.734375 1.371094-.734375 2.171875 0 1.023437.382812 1.929687 1.15625 2.71875.769531.792969 1.648438 1.1875 2.640625 1.1875.820313 0 1.660156-.234375 2.515625-.703125.863281-.46875 1.894531-1.25 3.09375-2.34375zm0 0" fill="#00687a" transform="translate(160.546868 179.493358)"/><g fill="#a8781d"><path d="m5.953125-21.578125c1.882813 0 3.3125.226563 4.28125.671875.976563.449219 1.769531 1.152344 2.375 2.109375.601563.949219.90625 2.023437.90625 3.21875 0 1.761719-.578125 3.226563-1.734375 4.390625-1.15625 1.15625-2.890625 1.734375-5.203125 1.734375h-2v9.453125h-2.40625v-21.578125zm-1.375 9.90625h1.296875c1.882812 0 3.226562-.320313 4.03125-.96875.800781-.65625 1.203125-1.632813 1.203125-2.9375 0-1.3125-.398437-2.265625-1.1875-2.859375-.792969-.601562-2.195313-.90625-4.203125-.90625h-1.140625zm0 0" transform="translate(189.257804 179.493358)"/><path d="m5.46875-21.578125c5.15625 0 7.734375 1.984375 7.734375 5.953125 0 1.65625-.484375 3.027344-1.453125 4.109375-.960938 1.074219-2.28125 1.6875-3.96875 1.84375l6.875 9.671875h-2.953125l-6.515625-9.46875h-.609375v9.46875h-2.40625v-21.578125zm-.890625 9.984375h1.0625c1.695313 0 2.976563-.3125 3.84375-.9375.875-.632812 1.3125-1.609375 1.3125-2.921875 0-1.4375-.429687-2.441406-1.28125-3.015625-.84375-.582031-2.070313-.875-3.671875-.875h-1.265625zm0 0" transform="translate(203.652262 179.493358)"/><path d="m4.640625-21.578125v21.578125h-2.40625v-21.578125zm0 0" transform="translate(219.162782 179.493358)"/><path d="m5.46875-21.578125c5.15625 0 7.734375 1.984375 7.734375 5.953125 0 1.65625-.484375 3.027344-1.453125 4.109375-.960938 1.074219-2.28125 1.6875-3.96875 1.84375l6.875 9.671875h-2.953125l-6.515625-9.46875h-.609375v9.46875h-2.40625v-21.578125zm-.890625 9.984375h1.0625c1.695313 0 2.976563-.3125 3.84375-.9375.875-.632812 1.3125-1.609375 1.3125-2.921875 0-1.4375-.429687-2.441406-1.28125-3.015625-.84375-.582031-2.070313-.875-3.671875-.875h-1.265625zm0 0" transform="translate(226.002297 179.493358)"/><path d="m1.09375-10.765625c0-1.976563.5-3.828125 1.5-5.546875s2.363281-3.085938 4.09375-4.109375c1.738281-1.019531 3.625-1.53125 5.65625-1.53125 2 0 3.863281.496094 5.59375 1.484375 1.726562.992188 3.101562 2.355469 4.125 4.09375 1.019531 1.742188 1.53125 3.609375 1.53125 5.609375 0 1.992187-.507812 3.84375-1.515625 5.5625-1 1.710937-2.367187 3.070313-4.09375 4.078125-1.71875 1-3.601563 1.5-5.640625 1.5-2.011719 0-3.886719-.492188-5.625-1.484375-1.730469-1-3.101562-2.359375-4.109375-4.078125-1.011719-1.726562-1.515625-3.585938-1.515625-5.578125zm11.21875-8.953125c-1.605469 0-3.085938.414062-4.4375 1.234375-1.355469.8125-2.421875 1.902344-3.203125 3.265625-.78125 1.367188-1.171875 2.839844-1.171875 4.421875 0 1.585937.394531 3.0625 1.1875 4.4375.800781 1.375 1.882812 2.46875 3.25 3.28125 1.363281.8125 2.832031 1.21875 4.40625 1.21875 1.582031 0 3.0625-.410156 4.4375-1.234375 1.382812-.820312 2.460938-1.914062 3.234375-3.28125.78125-1.375 1.171875-2.847656 1.171875-4.421875 0-1.601563-.398438-3.09375-1.1875-4.46875-.792969-1.382813-1.871094-2.472656-3.234375-3.265625-1.367187-.789062-2.851563-1.1875-4.453125-1.1875zm0 0" transform="translate(241.512818 179.493358)"/><path d="m6.734375-21.578125c1.976563 0 3.679687.304687 5.109375.90625 1.4375.59375 2.628906 1.402344 3.578125 2.421875.957031 1.023438 1.664063 2.171875 2.125 3.453125.457031 1.28125.6875 2.648437.6875 4.09375 0 1.855469-.429687 3.578125-1.28125 5.171875-.84375 1.585938-2.101563 2.902344-3.765625 3.953125-1.65625 1.054687-3.820312 1.578125-6.484375 1.578125h-4.53125v-21.578125zm.140625 19.34375c1.3125 0 2.5-.191406 3.5625-.578125 1.070312-.394531 2.019531-.984375 2.84375-1.765625.820312-.78125 1.453125-1.710937 1.890625-2.796875.4375-1.09375.65625-2.234375.65625-3.421875 0-1.5625-.351563-2.976563-1.046875-4.25-.699219-1.269531-1.695312-2.300781-2.984375-3.09375-1.28125-.800781-3.011719-1.203125-5.1875-1.203125h-2.03125v17.109375zm0 0" transform="translate(266.180842 179.493358)"/><path d="m10.140625-22.609375 9.703125 22.609375h-2.671875l-2.546875-6.125h-9.21875l-2.59375 6.125h-2.640625zm-3.75 14.25h7.296875l-3.609375-8.640625zm-2.5-13.21875" transform="translate(284.896245 179.493358)"/></g></svg>