<svg width="15" height="15" viewBox="0 0 15 15" fill="none" xmlns="http://www.w3.org/2000/svg">
<g clip-path="url(#clip0_1545_12925)">
<path d="M12.3573 6.13009C14.3573 8.95009 12.8273 12.1801 12.0873 13.4401C11.9788 13.6163 11.833 13.7667 11.6603 13.8807C11.4876 13.9947 11.292 14.0696 11.0873 14.1001C9.63729 14.3501 6.02729 14.6301 4.08729 11.8101C2.17729 9.15009 2.25729 4.47009 2.42729 2.24009C2.43399 2.07395 2.48006 1.91178 2.56169 1.76692C2.64333 1.62206 2.7582 1.49866 2.89685 1.40688C3.0355 1.31509 3.19397 1.25755 3.3592 1.23899C3.52444 1.22042 3.69173 1.24137 3.84729 1.30009C5.99729 1.92009 10.4773 3.47009 12.3573 6.13009Z" stroke="#000001" stroke-linecap="round" stroke-linejoin="round"/>
<path d="M5.61729 5.2002C7.90782 7.89946 9.91815 10.8245 11.6173 13.9302" stroke="#000001" stroke-linecap="round" stroke-linejoin="round"/>
</g>
<defs>
<clipPath id="clip0_1545_12925">
<rect width="14" height="14" fill="white" transform="translate(0.84729 0.75)"/>
</clipPath>
</defs>
</svg>
